HIERARCHY
ROOT Hips
{
	OFFSET -3.958830 18.904000 13.208200
	CHANNELS 6 Xposition Yposition Zposition Zrotation Yrotation Xrotation 
	JOINT LHipJoint
	{
		OFFSET 0.000000 0.000000 0.000000
		CHANNELS 3 Zrotation Yrotation Xrotation
		JOINT LeftUpLeg
		{
			OFFSET 1.800000 -1.400000 0.085000
			CHANNELS 3 Zrotation Yrotation Xrotation
			JOINT LeftLeg
			{
				OFFSET 2.215000 -6.000000 0.000000
				CHANNELS 3 Zrotation Yrotation Xrotation
				JOINT LeftFoot
				{
					OFFSET 2.500000 -6.900000 0.000000
					CHANNELS 3 Zrotation Yrotation Xrotation
					JOINT LeftToeBase
					{
						OFFSET 0.200000 -0.500000 1.950000
						CHANNELS 3 Zrotation Yrotation Xrotation
						End Site
						{
							OFFSET 0.000000 0.000000 0.000000
						}
					}
				}
			}
		}
	}
	JOINT RHipJoint
	{
		OFFSET 0.000000 0.000000 0.000000
		CHANNELS 3 Zrotation Yrotation Xrotation
		JOINT RightUpLeg
		{
			OFFSET -1.800000 -1.400000 0.085000
			CHANNELS 3 Zrotation Yrotation Xrotation
			JOINT RightLeg
			{
				OFFSET -2.215000 -6.000000 0.000000
				CHANNELS 3 Zrotation Yrotation Xrotation
				JOINT RightFoot
				{
					OFFSET -2.500000 -6.900000 0.000000
					CHANNELS 3 Zrotation Yrotation Xrotation
					JOINT RightToeBase
					{
						OFFSET -0.200000 -0.500000 1.950000
						CHANNELS 3 Zrotation Yrotation Xrotation
						End Site
						{
							OFFSET 0.000000 0.000000 0.000000
						}
					}
				}
			}
		}
	}
	JOINT LowerBack
	{
		OFFSET 0.000000 0.000000 0.000000
		CHANNELS 3 Zrotation Yrotation Xrotation
		JOINT Spine
		{
			OFFSET -0.087000 1.940000 -0.288900
			CHANNELS 3 Zrotation Yrotation Xrotation
			JOINT Spine1
			{
				OFFSET 0.000000 1.950000 0.060000
				CHANNELS 3 Zrotation Yrotation Xrotation
				JOINT Neck
				{
					OFFSET 0.000000 0.000000 0.000000
					CHANNELS 3 Zrotation Yrotation Xrotation
					JOINT Neck1
					{
						OFFSET 0.000000 1.600000 0.340000
						CHANNELS 3 Zrotation Yrotation Xrotation
						JOINT Head
						{
							OFFSET 0.000000 1.667000 -0.240000
							CHANNELS 3 Zrotation Yrotation Xrotation
							End Site
							{
								OFFSET 0.000000 0.000000 0.000000
							}
						}
					}
				}
				JOINT LeftShoulder
				{
					OFFSET 0.000000 0.000000 0.000000
					CHANNELS 3 Zrotation Yrotation Xrotation
					JOINT LeftArm
					{
						OFFSET 2.700000 1.550000 -0.730000
						CHANNELS 3 Zrotation Yrotation Xrotation
						JOINT LeftForeArm
						{
							OFFSET 5.450000 0.000000 0.000000
							CHANNELS 3 Zrotation Yrotation Xrotation
							JOINT LeftHand
							{
								OFFSET 3.450000 0.000000 0.000000
								CHANNELS 3 Zrotation Yrotation Xrotation
								JOINT LeftHandIndex1
								{
									OFFSET 0.750000 0.000000 0.000000
									CHANNELS 3 Zrotation Yrotation Xrotation
									End Site
									{
										OFFSET 0.000000 0.000000 0.000000
									}
								}
							}
						}
					}
				}
				JOINT RightShoulder
				{
					OFFSET 0.000000 0.000000 0.000000
					CHANNELS 3 Zrotation Yrotation Xrotation
					JOINT RightArm
					{
						OFFSET -2.700000 1.550000 -0.730000
						CHANNELS 3 Zrotation Yrotation Xrotation
						JOINT RightForeArm
						{
							OFFSET -5.450000 0.000000 0.000000
							CHANNELS 3 Zrotation Yrotation Xrotation
							JOINT RightHand
							{
								OFFSET -3.450000 0.000000 0.000000
								CHANNELS 3 Zrotation Yrotation Xrotation
								JOINT RightHandIndex1
								{
									OFFSET -0.750000 0.000000 0.000000
									CHANNELS 3 Zrotation Yrotation Xrotation
									End Site
									{
										OFFSET 0.000000 0.000000 0.000000
									}
								}
							}
						}
					}
				}
			}
		}
	}
}
MOTION
Frames: 4
Frame Time: 0.016667
-1.402520 17.081100 -1.394010 -1.008184 2.630824 -15.475394 -14.857850 13.733972 2.567008 22.442372 -0.125482 -12.503126 -3.302844 10.120441 32.486539 0.131513 6.992269 1.930548 0.332970 0.371410 0.149050 18.335355 -11.977570 1.999181 -21.303256 0.150020 -13.036682 5.029456 -10.308193 38.020445 -0.497248 -6.621359 1.857950 0.348070 0.151400 0.101120 -4.175586 -0.912011 -7.573280 10.247615 -1.183920 15.596169 -5.523280 0.380734 21.806227 1.886081 -1.285185 -12.865779 -6.046040 2.569702 50.725755 -1.193140 0.175530 -1.426370 -0.948336 -40.973689 3.784540 -3.602728 -38.996251 1.326958 18.411596 -3.397413 -2.116045 -4.119138 3.088645 -0.014580 0.162480 -0.035900 0.124920 -2.293329 41.938614 3.659210 7.859712 41.065003 3.942114 -19.382298 10.388122 -3.567328 2.638370 -1.535758 -0.032280 0.158440 -0.047050 -0.004920 
-1.394060 17.084740 -1.392590 -0.929150 2.443089 -15.462810 -14.838698 13.752059 2.527720 22.201011 -0.096846 -12.061433 -3.228969 9.995693 32.116150 0.117727 6.929466 1.958479 0.332230 0.370690 0.152130 18.351459 -11.995997 1.997436 -21.549055 0.049906 -12.903041 5.088975 -10.297550 37.647357 -0.488277 -6.596672 1.863511 0.350720 0.154860 0.104510 -4.221380 -0.912722 -7.534626 10.476085 -1.326773 15.236614 -5.788695 0.218076 21.946863 1.877147 -1.473980 -12.866528 -6.494606 2.955481 50.998567 -1.453340 0.529290 -1.309570 -1.040973 -41.007186 3.829715 -4.523066 -39.390518 2.052431 17.728038 -2.623602 -1.965593 -4.141367 3.079255 -0.017330 0.170310 -0.038210 0.122470 -2.203541 41.933556 3.699722 8.584561 41.686519 4.818540 -18.699699 10.263460 -3.415092 2.639681 -1.514633 -0.034520 0.158650 -0.044410 -0.007970 
-1.393350 17.093140 -1.389020 -0.727230 2.266362 -15.471060 -14.845732 13.798069 2.523189 21.977963 -0.133628 -11.821592 -3.234496 9.976455 32.087238 0.114419 6.939380 1.966591 0.326190 0.364880 0.145240 18.341859 -11.991580 1.966293 -21.562376 -0.092058 -12.667864 4.859324 -10.072879 37.007656 -0.460835 -6.500025 1.902101 0.354450 0.173740 0.104080 -4.193525 -1.017743 -7.498059 10.190942 -1.466063 14.939039 -5.755715 0.070267 22.111231 1.687968 -1.596569 -12.887126 -6.867338 3.288865 50.871389 -1.461110 0.749700 -1.067260 -0.929212 -41.131472 3.635499 -5.399252 -39.927026 3.207759 15.883965 -1.254563 -1.623384 -4.186408 3.053419 -0.026340 0.185270 -0.051130 0.125500 -1.983072 42.026882 3.917349 8.967934 41.920937 5.327542 -18.055640 10.590256 -3.307018 2.625896 -1.498203 -0.043390 0.167320 -0.039230 -0.006670 
-1.392540 17.095990 -1.393410 -0.704272 2.258925 -15.445178 -14.848631 13.835382 2.551250 21.925030 -0.236030 -11.919154 -3.235115 9.975164 32.215576 0.114475 6.957357 1.963312 0.317050 0.352080 0.143580 18.331354 -11.986907 1.952964 -21.336072 -0.147755 -12.725726 4.559732 -9.932795 36.992543 -0.449974 -6.451996 1.922312 0.348460 0.177020 0.099660 -4.173621 -1.105794 -7.521171 10.024020 -1.735399 15.059009 -5.743315 -0.207134 22.040649 1.617223 -1.701283 -13.102009 -7.151646 3.345950 50.839851 -1.606700 0.747690 -0.963990 -0.838369 -41.640419 3.524988 -5.411775 -39.753174 3.566357 14.717648 0.004340 -1.383916 -4.211976 3.032589 -0.024650 0.186200 -0.054890 0.122590 -1.941102 42.547548 3.929424 9.029311 42.067542 5.632021 -17.194624 10.495119 -3.092084 2.638711 -1.473363 -0.049990 0.171920 -0.035330 -0.008960 
